<svg width="46" height="46" viewBox="0 0 46 46" fill="none" xmlns="http://www.w3.org/2000/svg">
<path d="M5.74997 28.7501V26.8335C5.72184 25.3 6.31861 23.8211 7.4031 22.7366C8.48759 21.6521 9.96653 21.0553 11.5 21.0835H17.25C18.7834 21.0553 20.2624 21.6521 21.3469 22.7366C22.4313 23.8211 23.0281 25.3 23 26.8335V28.7501" stroke="black" stroke-width="2.875" stroke-linecap="round" stroke-linejoin="round"/>
<path d="M30.6665 21.0835H34.4998C36.0333 21.0553 37.5122 21.6521 38.5967 22.7366C39.6812 23.8211 40.278 25.3 40.2498 26.8335V28.7501" stroke="black" stroke-width="2.875" stroke-linecap="round" stroke-linejoin="round"/>
<circle cx="14.3752" cy="10.5417" r="4.79167" stroke="black" stroke-width="2.875" stroke-linecap="round" stroke-linejoin="round"/>
<circle cx="32.5833" cy="11.5001" r="3.83333" stroke="black" stroke-width="2.875" stroke-linecap="round" stroke-linejoin="round"/>
<path d="M34.5001 33.5416H29.5322" stroke="black" stroke-width="2.875" stroke-linecap="round" stroke-linejoin="round"/>
<path d="M34.4998 38.4409V33.5417" stroke="black" stroke-width="2.875" stroke-linecap="round" stroke-linejoin="round"/>
<path d="M11.5 33.6343C13.7203 37.7119 17.9918 40.2497 22.6347 40.2497C27.2777 40.2497 31.5492 37.7119 33.7695 33.6343" stroke="black" stroke-width="2.875" stroke-linecap="round" stroke-linejoin="round"/>
</svg>
