<svg width="46" height="46" viewBox="0 0 46 46" fill="none" xmlns="http://www.w3.org/2000/svg">
<path d="M19.1639 38.3397V28.7524C19.1639 27.6934 20.0224 26.8349 21.0814 26.8349H24.9163" stroke="#256136" stroke-width="2" stroke-linecap="round" stroke-linejoin="round"/>
<path d="M5.74353 20.2777L20.5049 7.62477C21.9411 6.39375 24.0603 6.39375 25.4965 7.62477L40.2579 20.2777" stroke="#256136" stroke-width="2" stroke-linecap="round" stroke-linejoin="round"/>
<path d="M23.0007 38.3398H5.74353" stroke="#256136" stroke-width="2" stroke-linecap="round" stroke-linejoin="round"/>
<path d="M29.9489 11.4411V7.18081C29.9489 6.38657 30.5927 5.74271 31.387 5.74271H36.3549C37.1492 5.74271 37.793 6.38657 37.793 7.18081V18.1648" stroke="#256136" stroke-width="2" stroke-linecap="round" stroke-linejoin="round"/>
<path d="M8.20715 18.1648V38.3396" stroke="#256136" stroke-width="2" stroke-linecap="round" stroke-linejoin="round"/>
<path fill-rule="evenodd" clip-rule="evenodd" d="M35.4621 40.2572C35.4621 36.5507 32.4574 33.5461 28.751 33.5461C32.4574 33.5461 35.4621 30.5414 35.4621 26.8349C35.4621 30.5414 38.4668 33.5461 42.1732 33.5461C38.4668 33.5461 35.4621 36.5507 35.4621 40.2572Z" stroke="#256136" stroke-width="2" stroke-linecap="round" stroke-linejoin="round"/>
</svg>
