<svg width="46" height="46" viewBox="0 0 46 46" fill="none" xmlns="http://www.w3.org/2000/svg">
<path d="M40.2572 23C40.2572 32.5309 32.5309 40.2572 23 40.2572" stroke="black" stroke-width="2.875" stroke-linecap="round" stroke-linejoin="round"/>
<path d="M5.74219 23.0001C5.74219 13.4692 13.4685 5.74292 22.9994 5.74292" stroke="black" stroke-width="2.875" stroke-linecap="round" stroke-linejoin="round"/>
<path d="M5.74219 23.0004C5.74246 25.0218 6.10199 27.0271 6.804 28.9227C7.12506 29.803 8.03025 30.3274 8.95367 30.1679L10.8447 29.8345C12.373 29.565 13.412 28.1316 13.1925 26.5952L12.6234 22.6113C12.5132 21.84 12.0948 21.1465 11.464 20.6892C10.8332 20.232 10.0439 20.0503 9.27663 20.1856L5.90076 20.7808" stroke="black" stroke-width="2.875" stroke-linecap="round" stroke-linejoin="round"/>
<path d="M40.2572 23.0001C40.2572 13.4692 32.5309 5.74292 23 5.74292" stroke="black" stroke-width="2.875" stroke-linecap="round" stroke-linejoin="round"/>
<path d="M40.2569 23.0004C40.2566 25.0218 39.8971 27.0271 39.1951 28.9227C38.874 29.803 37.9688 30.3274 37.0454 30.1679L35.1544 29.8345C33.6261 29.565 32.5871 28.1316 32.8066 26.5952L33.3757 22.6113C33.4859 21.84 33.9043 21.1465 34.5351 20.6892C35.1659 20.232 35.9552 20.0503 36.7224 20.1856L40.0983 20.7808" stroke="black" stroke-width="2.875" stroke-linecap="round" stroke-linejoin="round"/>
<path d="M25.8621 23.9415C25.8563 23.9415 25.851 23.945 25.8488 23.9503C25.8466 23.9557 25.8478 23.9618 25.8519 23.9659C25.856 23.97 25.8622 23.9713 25.8675 23.969C25.8729 23.9668 25.8764 23.9616 25.8764 23.9558C25.8766 23.952 25.8752 23.9482 25.8724 23.9454C25.8697 23.9427 25.8659 23.9413 25.8621 23.9415" stroke="black" stroke-width="2.875" stroke-linecap="round" stroke-linejoin="round"/>
<path d="M20.1384 23.9474C20.1326 23.9474 20.1274 23.9508 20.1252 23.9562C20.123 23.9616 20.1242 23.9677 20.1283 23.9718C20.1324 23.9759 20.1385 23.9771 20.1439 23.9749C20.1493 23.9727 20.1527 23.9675 20.1527 23.9617C20.153 23.9578 20.1516 23.954 20.1488 23.9512C20.1461 23.9485 20.1423 23.9471 20.1384 23.9474" stroke="black" stroke-width="2.875" stroke-linecap="round" stroke-linejoin="round"/>
</svg>
