<svg width="46" height="46" viewBox="0 0 46 46" fill="none" xmlns="http://www.w3.org/2000/svg">
<path fill-rule="evenodd" clip-rule="evenodd" d="M19.2586 26.5821C17.0161 24.3396 15.3256 21.8288 14.2025 19.2815C13.9648 18.7429 14.1047 18.1124 14.5206 17.6964L16.0904 16.1267C17.3765 14.8406 17.3765 13.0217 16.2533 11.8985L14.0031 9.65028C12.5062 8.15336 10.0797 8.15336 8.58279 9.65028L7.33312 10.898C5.91287 12.3183 5.32062 14.3672 5.70396 16.3989C6.65079 21.4071 9.56029 26.8907 14.2542 31.5846C18.9481 36.2785 24.4317 39.188 29.44 40.1349C31.4716 40.5182 33.5205 39.9259 34.9408 38.5057L36.1885 37.2579C37.6855 35.761 37.6855 33.3345 36.1885 31.8376L33.9403 29.5894C32.8171 28.4662 30.9963 28.4662 29.875 29.5894L28.1443 31.322C27.7284 31.7379 27.0978 31.8779 26.5592 31.6402C24.012 30.5151 21.5011 28.8227 19.2586 26.5821Z" stroke="black" stroke-width="2.875" stroke-linecap="round" stroke-linejoin="round"/>
<path d="M24.7635 9.90932V5.42432" stroke="black" stroke-width="2.875" stroke-linecap="round" stroke-linejoin="round"/>
<path d="M32.7559 13.072L35.9184 9.92871" stroke="black" stroke-width="2.875" stroke-linecap="round" stroke-linejoin="round"/>
<path d="M35.9375 21.0833H40.4033" stroke="black" stroke-width="2.875" stroke-linecap="round" stroke-linejoin="round"/>
</svg>
