<svg width="46" height="46" viewBox="0 0 46 46" fill="none" xmlns="http://www.w3.org/2000/svg">
<path fill-rule="evenodd" clip-rule="evenodd" d="M32.5865 34.5047V22.9999C32.5868 21.9827 32.1828 21.0071 31.4636 20.2879C30.7443 19.5686 29.7688 19.1647 28.7516 19.165H9.57693C8.55976 19.1647 7.58417 19.5686 6.86492 20.2879C6.14567 21.0071 5.74172 21.9827 5.742 22.9999V34.5047C5.74172 35.5219 6.14567 36.4975 6.86492 37.2167C7.58417 37.936 8.55976 38.3399 9.57693 38.3396H28.7516C30.8695 38.3396 32.5865 36.6226 32.5865 34.5047Z" stroke="#256136" stroke-width="2" stroke-linecap="round" stroke-linejoin="round"/>
<path d="M5.742 26.9864H32.5865" stroke="#256136" stroke-width="2" stroke-linecap="round" stroke-linejoin="round"/>
<path d="M11.8777 19.1649L14.1978 10.498C14.4611 9.51574 15.1043 8.67863 15.9857 8.17139C16.8671 7.66415 17.9141 7.5285 18.8956 7.79436L37.4183 12.7606C38.4006 13.0238 39.2377 13.6671 39.7449 14.5485C40.2522 15.4299 40.3878 16.4768 40.122 17.4584L37.1499 28.5605C36.621 30.5586 34.5988 31.7736 32.5863 31.3025" stroke="#256136" stroke-width="2" stroke-linecap="round" stroke-linejoin="round"/>
</svg>
