<svg width="46" height="46" viewBox="0 0 46 46" fill="none" xmlns="http://www.w3.org/2000/svg">
<path fill-rule="evenodd" clip-rule="evenodd" d="M11.4943 40.2571H7.65941C6.60058 40.2568 5.74232 39.3985 5.74194 38.3397V26.8349C5.74232 25.7761 6.60058 24.9178 7.65941 24.9174H11.4943C12.5532 24.9178 13.4114 25.7761 13.4118 26.8349V38.3397C13.4114 39.3985 12.5532 40.2568 11.4943 40.2571V40.2571Z" stroke="#256136" stroke-width="2" stroke-linecap="round" stroke-linejoin="round"/>
<path d="M24.9134 32.5873H28.6716C29.5014 32.5878 30.309 32.3186 30.9726 31.8204L35.6051 28.3459C36.7618 27.4792 38.3796 27.5944 39.4017 28.6163V28.6163C39.9468 29.1607 40.2531 29.8995 40.2531 30.6699C40.2531 31.4403 39.9468 32.1791 39.4017 32.7235L35.4268 36.6984C34.3558 37.7688 32.9922 38.4987 31.5075 38.7961L25.8894 39.9197C24.7755 40.1425 23.6261 40.115 22.5242 39.8392L17.4429 38.5698C16.8355 38.4167 16.2114 38.3394 15.5849 38.3397H13.4086" stroke="#256136" stroke-width="2" stroke-linecap="round" stroke-linejoin="round"/>
<path d="M24.9134 32.5873H27.7608C28.5313 32.5875 29.2703 32.2815 29.8151 31.7366C30.3599 31.1918 30.6659 30.4528 30.6658 29.6823V29.1013C30.6661 27.7689 29.7592 26.6074 28.4664 26.2846L24.0716 25.1859C23.3573 25.0076 22.6238 24.9174 21.8876 24.9174V24.9174C20.1097 24.9169 18.3715 25.4433 16.8926 26.4303L13.4086 28.7523" stroke="#256136" stroke-width="2" stroke-linecap="round" stroke-linejoin="round"/>
<path d="M36.9332 12.8993C38.8052 14.7714 38.8052 17.8065 36.9332 19.6786C35.0611 21.5506 32.026 21.5506 30.1539 19.6786C28.2819 17.8065 28.2819 14.7714 30.1539 12.8993C31.0529 12.0003 32.2722 11.4953 33.5435 11.4953C34.8149 11.4953 36.0342 12.0003 36.9332 12.8993" stroke="#256136" stroke-width="2" stroke-linecap="round" stroke-linejoin="round"/>
<path fill-rule="evenodd" clip-rule="evenodd" d="M13.2621 11.5636C12.1654 10.4668 12.1654 8.68862 13.2621 7.59184L16.2193 4.63464C17.3161 3.53786 19.0943 3.53786 20.1911 4.63464L23.1483 7.59184C24.2451 8.68861 24.2451 10.4668 23.1483 11.5636L20.1911 14.5208C19.0943 15.6176 17.3161 15.6176 16.2193 14.5208L13.2621 11.5636Z" stroke="#256136" stroke-width="2" stroke-linecap="round" stroke-linejoin="round"/>
</svg>
