<svg width="46" height="46" viewBox="0 0 46 46" fill="none" xmlns="http://www.w3.org/2000/svg">
<path d="M15.3333 7.66669L12.4583 10.5417" stroke="#256136" stroke-width="2" stroke-linecap="round" stroke-linejoin="round"/>
<path d="M12.4583 4.79169L15.3333 7.66669" stroke="#256136" stroke-width="2" stroke-linecap="round" stroke-linejoin="round"/>
<path d="M11.5 7.66669C8.32408 7.66669 5.75 10.2408 5.75 13.4167" stroke="#256136" stroke-width="2" stroke-linecap="round" stroke-linejoin="round"/>
<path d="M11.5 7.66671H15.3333" stroke="#256136" stroke-width="2" stroke-linecap="round" stroke-linejoin="round"/>
<path d="M30.6667 38.3334L33.5417 35.4584" stroke="#256136" stroke-width="2" stroke-linecap="round" stroke-linejoin="round"/>
<path d="M33.5417 41.2084L30.6667 38.3334" stroke="#256136" stroke-width="2" stroke-linecap="round" stroke-linejoin="round"/>
<path d="M34.5 38.3334C37.6759 38.3334 40.25 35.7593 40.25 32.5834" stroke="#256136" stroke-width="2" stroke-linecap="round" stroke-linejoin="round"/>
<path d="M34.5 38.3334H30.6667" stroke="#256136" stroke-width="2" stroke-linecap="round" stroke-linejoin="round"/>
<path fill-rule="evenodd" clip-rule="evenodd" d="M18.2084 38.3334C24.0063 38.3334 28.75 33.5896 28.75 27.7917C28.75 21.9938 24.0063 17.25 18.2084 17.25C12.4104 17.25 7.66669 21.9938 7.66669 27.7917C7.66669 30.1569 8.46594 32.3399 9.79419 34.1014C11.7204 36.6639 14.7756 38.3334 18.2084 38.3334Z" stroke="#256136" stroke-width="2" stroke-linecap="round" stroke-linejoin="round"/>
<path d="M35.2452 10.7544C39.3449 14.8541 39.3449 21.5624 35.2452 25.6622C34.9174 25.9899 34.559 26.264 34.1968 26.5304" stroke="#256136" stroke-width="2" stroke-linecap="round" stroke-linejoin="round"/>
<path d="M35.2443 10.7544C31.1446 6.65463 24.4363 6.65463 20.3365 10.7544C20.0107 11.0802 19.7308 11.4348 19.4587 11.7932" stroke="#256136" stroke-width="2" stroke-linecap="round" stroke-linejoin="round"/>
</svg>
