<svg width="46" height="46" viewBox="0 0 46 46" fill="none" xmlns="http://www.w3.org/2000/svg">
<path d="M23 32.7359V40.2499" stroke="#256136" stroke-width="2" stroke-linecap="round" stroke-linejoin="round"/>
<path d="M5.75 40.25V37.4296C5.75 34.6887 7.68464 32.3288 10.3723 31.7913L15.8272 30.7003C16.278 30.6102 16.7462 30.7028 17.1288 30.9578V30.9578C20.6842 33.328 25.316 33.328 28.8713 30.9578V30.9578C29.2539 30.7028 29.7221 30.6102 30.173 30.7003L35.6278 31.7913C38.3154 32.3289 40.25 34.6887 40.25 37.4296V40.25" stroke="#256136" stroke-width="2" stroke-linecap="round" stroke-linejoin="round"/>
<path d="M30.6667 14.1801V19.1666C30.6667 23.4008 27.2342 26.8333 23 26.8333V26.8333C18.7659 26.8333 15.3334 23.4008 15.3334 19.1666V14.1801" stroke="#256136" stroke-width="2" stroke-linecap="round" stroke-linejoin="round"/>
<path d="M27.0267 25.6937L28.4145 31.2453" stroke="#256136" stroke-width="2" stroke-linecap="round" stroke-linejoin="round"/>
<path d="M18.9771 25.6937L17.5893 31.245" stroke="#256136" stroke-width="2" stroke-linecap="round" stroke-linejoin="round"/>
<path fill-rule="evenodd" clip-rule="evenodd" d="M11.6856 12.3744L20.2235 16.601C21.9733 17.4663 24.0266 17.4663 25.7765 16.601L34.3143 12.3744C35.0144 12.0321 35.4583 11.3209 35.4583 10.5417C35.4583 9.76243 35.0144 9.05126 34.3143 8.70899L25.7765 4.4823C24.0266 3.61702 21.9733 3.61702 20.2235 4.4823L11.6856 8.70899C10.9855 9.05126 10.5416 9.76243 10.5416 10.5417C10.5416 11.3209 10.9855 12.0321 11.6856 12.3744Z" stroke="#256136" stroke-width="2" stroke-linecap="round" stroke-linejoin="round"/>
<path d="M35.4583 10.6079V15.5912" stroke="#256136" stroke-width="2" stroke-linecap="round" stroke-linejoin="round"/>
</svg>
