<svg width="46" height="46" viewBox="0 0 46 46" fill="none" xmlns="http://www.w3.org/2000/svg">
<path d="M33.5427 41.2158L30.6665 38.3396L33.5427 35.4634" stroke="#256136" stroke-width="2" stroke-linecap="round" stroke-linejoin="round"/>
<path d="M30.6665 38.3397H34.5014C37.6784 38.3397 40.2538 35.7642 40.2538 32.5873" stroke="#256136" stroke-width="2" stroke-linecap="round" stroke-linejoin="round"/>
<path d="M12.4497 4.78412L15.3259 7.66032L12.4497 10.5365" stroke="#256136" stroke-width="2" stroke-linecap="round" stroke-linejoin="round"/>
<path d="M15.3293 7.66025H11.4943C8.31738 7.66025 5.74194 10.2357 5.74194 13.4126" stroke="#256136" stroke-width="2" stroke-linecap="round" stroke-linejoin="round"/>
<path fill-rule="evenodd" clip-rule="evenodd" d="M26.8341 24.9175V33.6499C26.8341 35.181 25.5928 36.4223 24.0617 36.4223H8.51431C6.98317 36.4223 5.74194 35.181 5.74194 33.6499V23.8549C5.74194 22.3238 6.98317 21.0826 8.51431 21.0826H22.9991C24.0162 21.0826 24.9916 21.4866 25.7108 22.2058C26.43 22.925 26.8341 23.9004 26.8341 24.9175Z" stroke="#256136" stroke-width="2" stroke-linecap="round" stroke-linejoin="round"/>
<circle cx="16.2837" cy="28.7523" r="2.8762" stroke="#256136" stroke-width="2" stroke-linecap="round" stroke-linejoin="round"/>
<path d="M19.1628 15.33V12.35C19.1628 10.8188 20.4041 9.57761 21.9352 9.57761H36.42C38.538 9.57761 40.255 11.2946 40.255 13.4125V22.145C40.255 22.8802 39.9629 23.5854 39.443 24.1053C38.923 24.6252 38.2179 24.9173 37.4826 24.9173H32.5851" stroke="#256136" stroke-width="2" stroke-linecap="round" stroke-linejoin="round"/>
<path d="M27.6747 15.2136C28.4011 14.4863 29.4605 14.2021 30.4535 14.4679C31.4465 14.7338 32.2221 15.5094 32.488 16.5024C32.7538 17.4954 32.4695 18.5547 31.7422 19.2812" stroke="#256136" stroke-width="2" stroke-linecap="round" stroke-linejoin="round"/>
</svg>
