<svg width="46" height="46" viewBox="0 0 46 46" fill="none" xmlns="http://www.w3.org/2000/svg">
<path d="M14.375 5.75H10.0625C7.68008 5.75 5.75 7.68008 5.75 10.0625V14.375" stroke="black" stroke-width="2.875" stroke-linecap="round" stroke-linejoin="round"/>
<path d="M5.75 31.625V35.9375C5.75 38.3199 7.68008 40.25 10.0625 40.25H14.375" stroke="black" stroke-width="2.875" stroke-linecap="round" stroke-linejoin="round"/>
<path d="M31.625 40.25H35.9375C38.3199 40.25 40.25 38.3199 40.25 35.9375V31.625" stroke="black" stroke-width="2.875" stroke-linecap="round" stroke-linejoin="round"/>
<path d="M40.25 14.375V10.0625C40.25 7.68008 38.3199 5.75 35.9375 5.75H31.625" stroke="black" stroke-width="2.875" stroke-linecap="round" stroke-linejoin="round"/>
<path fill-rule="evenodd" clip-rule="evenodd" d="M22.9998 32.5834C22.9998 32.5834 15.5459 26.4616 15.5459 20.8707C15.5459 16.7537 18.8828 13.4167 22.9998 13.4167C27.1168 13.4167 30.4537 16.7537 30.4537 20.8707C30.4537 26.4616 22.9998 32.5834 22.9998 32.5834Z" stroke="black" stroke-width="2.875" stroke-linecap="round" stroke-linejoin="round"/>
<path d="M22.9974 20.5505C22.7042 20.5505 22.4665 20.7901 22.4665 21.0833C22.4665 21.3766 22.7061 21.6142 22.9993 21.6142C23.2926 21.6142 23.5322 21.3766 23.5322 21.0814C23.5322 20.7901 23.2926 20.5505 22.9974 20.5505" stroke="black" stroke-width="2.875" stroke-linecap="round" stroke-linejoin="round"/>
</svg>
