<svg width="584" height="163" viewBox="0 0 584 163" fill="none" xmlns="http://www.w3.org/2000/svg">
<circle cx="330" cy="78.0001" r="38" transform="rotate(-180 330 78.0001)" fill="#4FC170"/>
<g clip-path="url(#clip0_1292:214392)">
<rect x="513" y="140" width="1440" height="126" transform="rotate(-180 513 140)" fill="#184B26"/>
<path opacity="0.54" d="M477.384 -315.817C477.384 -315.817 458.628 481.41 350.722 235.939C242.817 -9.53219 188.995 -34.3191 114.518 456.587C114.518 456.587 135.989 -264.083 253.411 -315.945C349.085 -356.494 373.819 -7.42687 477.379 -315.945" fill="#5C9F27"/>
<path opacity="0.9" d="M494.47 -232.065C494.47 -232.065 479.677 396.859 394.572 203.21C309.467 9.56016 267.018 -9.99391 208.278 377.276C208.278 377.276 225.212 -191.252 317.823 -232.166C393.281 -264.154 412.789 11.221 494.466 -232.166" fill="#B8D846"/>
<path opacity="0.6" d="M464.134 -356.086C464.134 -356.086 454.93 247.702 372.675 106.746C290.419 -34.2101 249.984 -31.469 197.215 365.207C197.215 365.207 208.915 -182.385 296.491 -267.614C367.857 -335.78 388.487 -84.439 464.13 -356.18" fill="#13B98E"/>
</g>
<g clip-path="url(#clip1_1292:214392)">
<rect x="477" y="61.0001" width="1440" height="126" transform="rotate(-180 477 61.0001)" fill="#184B26"/>
<path opacity="0.54" d="M423.463 -394.817C423.463 -394.817 410.668 402.41 337.058 156.939C263.448 -88.5321 226.733 -113.319 175.926 377.587C175.926 377.587 190.574 -343.083 270.676 -394.945C335.941 -435.494 352.814 -86.4268 423.46 -394.945" fill="#5C9F27"/>
<path opacity="0.9" d="M435.119 -311.064C435.119 -311.064 425.028 317.859 366.972 124.21C308.916 -69.4396 279.958 -88.9937 239.887 298.276C239.887 298.276 251.44 -270.252 314.616 -311.166C366.091 -343.154 379.399 -67.7788 435.117 -311.166" fill="#B8D846"/>
<path opacity="0.6" d="M414.426 -435.086C414.426 -435.086 408.147 168.702 352.035 27.7458C295.922 -113.21 268.338 -110.469 232.341 286.207C232.341 286.207 240.323 -261.385 300.064 -346.614C348.748 -414.78 362.821 -163.439 414.423 -435.18" fill="#13B98E"/>
</g>
<g clip-path="url(#clip2_1292:214392)">
<rect width="1440" height="126" transform="matrix(-1 -8.74228e-08 -8.74228e-08 1 547 19.0001)" fill="#184B26"/>
<path opacity="0.54" d="M511.384 465.921C511.384 465.921 492.628 -315.362 384.722 -74.8C276.816 165.762 222.995 190.053 148.518 -291.035C148.518 -291.035 169.989 415.222 287.411 466.047C383.085 505.785 407.819 163.699 511.379 466.047" fill="#5C9F27"/>
<path opacity="0.9" d="M528.471 383.844C528.471 383.844 513.678 -232.502 428.573 -42.7253C343.468 147.051 301.019 166.214 242.279 -213.31C242.279 -213.31 259.213 343.847 351.824 383.943C427.282 415.291 446.79 145.424 528.467 383.943" fill="#B8D846"/>
<path opacity="0.6" d="M498.134 505.384C498.134 505.384 488.93 -86.3273 406.675 51.8094C324.419 189.946 283.984 187.26 231.215 -201.483C231.215 -201.483 242.915 335.157 330.491 418.682C401.856 485.485 422.487 239.17 498.13 505.476" fill="#13B98E"/>
</g>
<circle cx="125" cy="85" r="38" fill="#4FC170"/>
<g clip-path="url(#clip3_1292:214392)">
<rect x="-58" y="23" width="1440" height="126" fill="#184B26"/>
<path opacity="0.54" d="M-22.3844 478.817C-22.3844 478.817 -3.6287 -318.41 104.277 -72.9388C212.183 172.532 266.004 197.319 340.482 -293.586C340.482 -293.586 319.01 427.083 201.588 478.946C105.914 519.494 81.18 170.427 -22.3799 478.946" fill="#5C9F27"/>
<path opacity="0.9" d="M-39.4703 395.065C-39.4703 395.065 -24.6777 -233.859 60.4275 -40.2096C145.533 153.44 187.982 172.994 246.722 -214.276C246.722 -214.276 229.787 354.252 137.177 395.166C61.7187 427.154 42.2109 151.779 -39.4667 395.166" fill="#B8D846"/>
<path opacity="0.6" d="M-9.1348 519.086C-9.1348 519.086 0.0690923 -84.7015 82.3248 56.2544C164.581 197.21 205.016 194.469 257.785 -202.207C257.785 -202.207 246.084 345.385 158.509 430.614C87.1429 498.78 66.5126 247.439 -9.13062 519.18" fill="#13B98E"/>
</g>
<g clip-path="url(#clip4_1292:214392)">
<rect x="-22" y="102" width="1440" height="126" fill="#184B26"/>
<path opacity="0.54" d="M31.5365 557.817C31.5365 557.817 44.3311 -239.41 117.941 6.06112C191.551 251.532 228.267 276.319 279.073 -214.587C279.073 -214.587 264.426 506.083 184.324 557.945C119.058 598.494 102.185 249.427 31.5396 557.945" fill="#5C9F27"/>
<path opacity="0.9" d="M19.8808 474.065C19.8808 474.065 29.9719 -154.859 88.0282 38.7903C146.084 232.44 175.042 251.994 215.113 -135.276C215.113 -135.276 203.56 433.252 140.384 474.166C88.9089 506.154 75.6013 230.779 19.8832 474.166" fill="#B8D846"/>
<path opacity="0.6" d="M40.5747 598.086C40.5747 598.086 46.8533 -5.70149 102.966 135.254C159.078 276.21 186.662 273.469 222.66 -123.207C222.66 -123.207 214.678 424.385 154.936 509.614C106.252 577.78 92.1791 326.439 40.5775 598.18" fill="#13B98E"/>
</g>
<g clip-path="url(#clip5_1292:214392)">
<rect width="1440" height="126" transform="matrix(1 1.74846e-07 1.74846e-07 -1 -92 144)" fill="#184B26"/>
<path opacity="0.54" d="M-56.3841 -302.921C-56.3841 -302.921 -37.6287 478.362 70.2772 237.8C178.183 -2.76151 232.004 -27.0526 306.482 454.035C306.482 454.035 285.01 -252.222 167.588 -303.046C71.9144 -342.784 47.1802 -0.698328 -56.3796 -303.047" fill="#5C9F27"/>
<path opacity="0.9" d="M-73.4701 -220.843C-73.4701 -220.843 -58.6777 395.502 26.4276 205.725C111.533 15.949 153.982 -3.214 212.722 376.311C212.722 376.311 195.788 -180.847 103.177 -220.942C27.7189 -252.291 8.21099 17.5766 -73.4665 -220.943" fill="#B8D846"/>
<path opacity="0.6" d="M-43.1346 -342.384C-43.1346 -342.384 -33.9309 249.327 48.3249 111.191C130.581 -26.946 171.016 -24.2597 223.785 364.483C223.785 364.483 212.084 -172.157 124.509 -255.682C53.1431 -322.484 32.5127 -76.1703 -43.1304 -342.476" fill="#13B98E"/>
</g>
<circle cx="214" cy="38.0001" r="38" transform="rotate(-90 214 38.0001)" fill="#4FC170"/>
<g clip-path="url(#clip6_1292:214392)">
<rect x="152" y="221" width="1440" height="126" transform="rotate(-90 152 221)" fill="#184B26"/>
<path opacity="0.54" d="M607.818 185.384C607.818 185.384 -189.41 166.629 56.0613 58.7228C301.532 -49.1831 326.319 -103.004 -164.586 -177.482C-164.586 -177.482 556.084 -156.01 607.946 -38.5882C648.494 57.0857 299.427 81.8198 607.946 185.38" fill="#5C9F27"/>
<path opacity="0.9" d="M524.065 202.47C524.065 202.47 -104.859 187.678 88.7906 102.573C282.44 17.4673 301.994 -24.9814 -85.2758 -83.7217C-85.2758 -83.7217 483.253 -66.7872 524.166 25.8235C556.155 101.281 280.779 120.789 524.166 202.467" fill="#B8D846"/>
<path opacity="0.6" d="M648.086 172.135C648.086 172.135 44.2986 162.931 185.255 80.6753C326.21 -1.58046 323.469 -42.0158 -73.2069 -94.7848C-73.2069 -94.7848 474.385 -83.084 559.614 4.49157C627.78 75.8572 376.439 96.4875 648.18 172.131" fill="#13B98E"/>
</g>
<g clip-path="url(#clip7_1292:214392)">
<rect x="231" y="185" width="1440" height="126" transform="rotate(-90 231 185)" fill="#184B26"/>
<path opacity="0.54" d="M686.817 131.464C686.817 131.464 -110.41 118.669 135.061 45.0588C380.532 -28.5513 405.319 -65.2666 -85.5864 -116.073C-85.5864 -116.073 635.083 -101.426 686.946 -21.3238C727.494 43.9421 378.427 60.815 686.946 131.461" fill="#5C9F27"/>
<path opacity="0.9" d="M603.065 143.119C603.065 143.119 -25.8588 133.028 167.791 74.9718C361.44 16.9156 380.994 -12.0418 -6.27585 -52.1127C-6.27585 -52.1127 562.252 -40.5604 603.166 22.6159C635.154 74.0911 359.779 87.3987 603.166 143.117" fill="#B8D846"/>
<path opacity="0.6" d="M727.086 122.426C727.086 122.426 123.299 116.147 264.254 60.0345C405.21 3.92202 402.469 -23.6618 5.79308 -59.6593C5.79308 -59.6593 553.385 -51.6773 638.614 8.06419C706.78 56.7477 455.439 70.8211 727.18 122.423" fill="#13B98E"/>
</g>
<g clip-path="url(#clip8_1292:214392)">
<rect width="1440" height="126" transform="matrix(1.31134e-07 -1 -1 -1.31134e-07 273 255)" fill="#184B26"/>
<path opacity="0.54" d="M-173.921 219.384C-173.921 219.384 607.362 200.629 366.8 92.7228C126.239 -15.1831 101.948 -69.0043 583.035 -143.482C583.035 -143.482 -123.221 -122.01 -174.046 -4.58826C-213.784 91.0856 128.302 115.82 -174.046 219.38" fill="#5C9F27"/>
<path opacity="0.9" d="M-91.8434 236.47C-91.8434 236.47 524.502 221.678 334.725 136.573C144.949 51.4673 125.786 9.01846 505.311 -49.7217C505.311 -49.7217 -51.8473 -32.7874 -91.9425 59.8234C-123.291 135.281 146.577 154.789 -91.9425 236.467" fill="#B8D846"/>
<path opacity="0.6" d="M-213.384 206.135C-213.384 206.135 378.328 196.931 240.191 114.675C102.054 32.4195 104.741 -8.01587 493.483 -60.7848C493.483 -60.7848 -43.1569 -49.0841 -126.682 38.4914C-193.484 109.857 52.8299 130.487 -213.476 206.131" fill="#13B98E"/>
</g>
<circle cx="533" cy="125" r="38" transform="rotate(90 533 125)" fill="#4FC170"/>
<g clip-path="url(#clip9_1292:214392)">
<rect x="595" y="-57.9999" width="1440" height="126" transform="rotate(90 595 -57.9999)" fill="#184B26"/>
<path opacity="0.54" d="M139.183 -22.3841C139.183 -22.3841 936.41 -3.62846 690.939 104.277C445.468 212.183 420.681 266.004 911.587 340.482C911.587 340.482 190.917 319.011 139.055 201.588C98.506 105.915 447.573 81.1803 139.055 -22.3795" fill="#5C9F27"/>
<path opacity="0.9" d="M222.936 -39.4701C222.936 -39.4701 851.859 -24.6776 658.21 60.4277C464.56 145.533 445.006 187.982 832.276 246.722C832.276 246.722 263.748 229.788 222.834 137.177C190.846 61.7189 466.221 42.211 222.834 -39.4665" fill="#B8D846"/>
<path opacity="0.6" d="M98.9145 -9.1346C98.9145 -9.1346 702.702 0.069211 561.746 82.325C420.79 164.581 423.531 205.016 820.207 257.785C820.207 257.785 272.615 246.084 187.386 158.509C119.22 87.1431 370.561 66.5128 98.8204 -9.13043" fill="#13B98E"/>
</g>
<g clip-path="url(#clip10_1292:214392)">
<rect x="516" y="-21.9999" width="1440" height="126" transform="rotate(90 516 -21.9999)" fill="#184B26"/>
<path opacity="0.54" d="M60.1831 31.5367C60.1831 31.5367 857.41 44.3312 611.939 117.941C366.468 191.552 341.681 228.267 832.587 279.073C832.587 279.073 111.917 264.426 60.0549 184.324C19.5062 119.058 368.573 102.185 60.0549 31.5398" fill="#5C9F27"/>
<path opacity="0.9" d="M143.936 19.8811C143.936 19.8811 772.859 29.9721 579.21 88.0284C385.56 146.085 366.006 175.042 753.276 215.113C753.276 215.113 184.748 203.561 143.835 140.384C111.846 88.9092 387.221 75.6016 143.835 19.8835" fill="#B8D846"/>
<path opacity="0.6" d="M19.9146 40.5748C19.9146 40.5748 623.702 46.8533 482.746 102.966C341.79 159.078 344.531 186.662 741.207 222.66C741.207 222.66 193.615 214.678 108.386 154.936C40.2203 106.253 291.561 92.1792 19.8205 40.5776" fill="#13B98E"/>
</g>
<g clip-path="url(#clip11_1292:214392)">
<rect width="1440" height="126" transform="matrix(-4.37114e-08 1 1 4.37114e-08 474 -91.9999)" fill="#184B26"/>
<path opacity="0.54" d="M920.921 -56.384C920.921 -56.384 139.638 -37.6285 380.2 70.2774C620.762 178.183 645.053 232.005 163.965 306.482C163.965 306.482 870.222 285.011 921.047 167.588C960.785 71.9146 618.699 47.1804 921.047 -56.3795" fill="#5C9F27"/>
<path opacity="0.9" d="M838.843 -73.4701C838.843 -73.4701 222.498 -58.6776 412.275 26.4277C602.051 111.533 621.214 153.982 241.689 212.722C241.689 212.722 798.847 195.788 838.942 103.177C870.291 27.7189 600.423 8.21107 838.943 -73.4665" fill="#B8D846"/>
<path opacity="0.6" d="M960.384 -43.1346C960.384 -43.1346 368.672 -33.9308 506.809 48.325C644.946 130.581 642.259 171.016 253.517 223.785C253.517 223.785 790.157 212.084 873.682 124.509C940.484 53.1431 694.17 32.5128 960.476 -43.1304" fill="#13B98E"/>
</g>
<defs>
<clipPath id="clip0_1292:214392">
<path d="M421 129L342 129C314.386 129 292 106.614 292 79.0001V79.0001L421 79.0001L421 129Z" fill="white"/>
</clipPath>
<clipPath id="clip1_1292:214392">
<path d="M385 50.0001L347 50.0001C319.386 50.0001 297 27.6144 297 0.000122007V0.000122007L385 0.0001297L385 50.0001Z" fill="white"/>
</clipPath>
<clipPath id="clip2_1292:214392">
<path d="M455 30.0001L375 30.0001C347.938 30.0001 326 51.9382 326 79.0001V79.0001L455 79.0001L455 30.0001Z" fill="white"/>
</clipPath>
<clipPath id="clip3_1292:214392">
<path d="M34 34L113 34C140.614 34 163 56.3858 163 84V84L34 84L34 34Z" fill="white"/>
</clipPath>
<clipPath id="clip4_1292:214392">
<path d="M70 113L108 113C135.614 113 158 135.386 158 163V163L70 163L70 113Z" fill="white"/>
</clipPath>
<clipPath id="clip5_1292:214392">
<path d="M0 133L80 133C107.062 133 129 111.062 129 84V84L8.56743e-06 84L0 133Z" fill="white"/>
</clipPath>
<clipPath id="clip6_1292:214392">
<path d="M163 129L163 50.0001C163 22.3859 185.386 0.000125006 213 0.000128627V0.000128627L213 129L163 129Z" fill="white"/>
</clipPath>
<clipPath id="clip7_1292:214392">
<path d="M242 93.0001L242 55.0001C242 27.3859 264.386 5.00012 292 5.00012V5.00012L292 93.0001L242 93.0001Z" fill="white"/>
</clipPath>
<clipPath id="clip8_1292:214392">
<path d="M262 163L262 83.0001C262 55.9382 240.062 34.0001 213 34.0001V34.0001L213 163L262 163Z" fill="white"/>
</clipPath>
<clipPath id="clip9_1292:214392">
<path d="M584 34.0001L584 113C584 140.614 561.614 163 534 163V163L534 34.0001L584 34.0001Z" fill="white"/>
</clipPath>
<clipPath id="clip10_1292:214392">
<path d="M505 70.0001L505 108C505 135.614 482.614 158 455 158V158L455 70.0001L505 70.0001Z" fill="white"/>
</clipPath>
<clipPath id="clip11_1292:214392">
<path d="M485 0.00012207L485 80.0001C485 107.062 506.938 129 534 129V129L534 0.000124212L485 0.00012207Z" fill="white"/>
</clipPath>
</defs>
</svg>
