<svg width="42" height="42" viewBox="0 0 42 42" fill="none" xmlns="http://www.w3.org/2000/svg">
<rect x="0.583333" y="0.583333" width="40.8333" height="40.8333" rx="8.75" stroke="#256136" stroke-width="1.16667"/>
<path d="M12.5528 33V29.652C14.0888 28.38 15.5768 27.12 17.0168 25.872C18.4808 24.624 19.7768 23.388 20.9048 22.164C22.0568 20.94 22.9688 19.752 23.6408 18.6C24.3368 17.424 24.6848 16.284 24.6848 15.18C24.6848 14.148 24.3968 13.236 23.8208 12.444C23.2688 11.652 22.3448 11.256 21.0488 11.256C19.7288 11.256 18.7328 11.688 18.0608 12.552C17.3888 13.416 17.0528 14.46 17.0528 15.684H12.5888C12.6368 13.836 13.0448 12.3 13.8128 11.076C14.5808 9.828 15.6008 8.904 16.8728 8.304C18.1448 7.68 19.5728 7.368 21.1568 7.368C23.7248 7.368 25.7168 8.076 27.1328 9.492C28.5728 10.884 29.2928 12.696 29.2928 14.928C29.2928 16.32 28.9688 17.676 28.3208 18.996C27.6968 20.316 26.8688 21.588 25.8368 22.812C24.8048 24.036 23.6888 25.188 22.4888 26.268C21.2888 27.324 20.1248 28.308 18.9968 29.22H29.9048V33H12.5528Z" fill="#256136"/>
</svg>
