<svg width="42" height="42" viewBox="0 0 42 42" fill="none" xmlns="http://www.w3.org/2000/svg">
<rect x="0.583333" y="0.583333" width="40.8333" height="40.8333" rx="8.75" stroke="#256136" stroke-width="1.16667"/>
<path d="M20.9693 33.432C19.3133 33.432 17.8133 33.144 16.4693 32.568C15.1253 31.968 14.0453 31.056 13.2293 29.832C12.4133 28.608 11.9813 27.072 11.9333 25.224H16.4693C16.4933 26.448 16.8893 27.48 17.6573 28.32C18.4493 29.136 19.5533 29.544 20.9693 29.544C22.3133 29.544 23.3453 29.172 24.0653 28.428C24.7853 27.684 25.1453 26.748 25.1453 25.62C25.1453 24.3 24.6653 23.304 23.7053 22.632C22.7693 21.936 21.5573 21.588 20.0693 21.588H18.1973V17.808H20.1053C21.3293 17.808 22.3493 17.52 23.1653 16.944C23.9813 16.368 24.3893 15.516 24.3893 14.388C24.3893 13.452 24.0773 12.708 23.4533 12.156C22.8533 11.58 22.0133 11.292 20.9333 11.292C19.7573 11.292 18.8333 11.64 18.1613 12.336C17.5133 13.032 17.1533 13.884 17.0813 14.892H12.5813C12.6773 12.564 13.4813 10.728 14.9933 9.384C16.5293 8.04 18.5093 7.368 20.9333 7.368C22.6613 7.368 24.1133 7.68 25.2893 8.304C26.4893 8.904 27.3893 9.708 27.9893 10.716C28.6133 11.724 28.9253 12.84 28.9253 14.064C28.9253 15.48 28.5293 16.68 27.7373 17.664C26.9693 18.624 26.0093 19.272 24.8573 19.608C26.2733 19.896 27.4253 20.592 28.3133 21.696C29.2013 22.776 29.6453 24.144 29.6453 25.8C29.6453 27.192 29.3093 28.464 28.6373 29.616C27.9653 30.768 26.9813 31.692 25.6853 32.388C24.4133 33.084 22.8413 33.432 20.9693 33.432Z" fill="#256136"/>
</svg>
