<svg width="24" height="24" viewBox="0 0 24 24" fill="none" xmlns="http://www.w3.org/2000/svg">
<path fill-rule="evenodd" clip-rule="evenodd" d="M18.2986 5.97438L18.2986 5.97441L18.3099 5.97528C19.0244 6.03024 19.4031 6.16585 19.6117 6.29015C19.7829 6.39214 19.9339 6.54012 20.0779 6.86636C20.2406 7.23505 20.3796 7.80297 20.4675 8.69365C20.5545 9.57477 20.5827 10.6653 20.5827 12.0334C20.5827 13.4011 20.5545 14.498 20.4674 15.3868C20.3793 16.2859 20.2398 16.8636 20.0755 17.2391C19.9294 17.5731 19.7794 17.7155 19.6206 17.8088C19.4254 17.9236 19.06 18.0524 18.3552 18.0885L18.3552 18.0885L18.3477 18.0889C15.2156 18.2629 8.18345 18.2633 5.03504 18.09C4.33222 18.0342 3.95812 17.8998 3.75125 17.7766C3.58007 17.6746 3.4291 17.5266 3.28509 17.2004C3.12233 16.8317 2.98334 16.2638 2.89542 15.3731C2.80844 14.492 2.78025 13.4014 2.78025 12.0334C2.78025 10.6653 2.80844 9.57477 2.89542 8.69365C2.98334 7.80297 3.12233 7.23505 3.28509 6.86636C3.4291 6.54012 3.58007 6.39214 3.75125 6.29015C3.95988 6.16585 4.33861 6.03024 5.05308 5.97528L5.05308 5.97532L5.06438 5.97438C8.17044 5.71554 15.1925 5.71554 18.2986 5.97438ZM1 12.0334C1 17.5521 1.44506 19.5994 4.91654 19.8664C8.12099 20.0445 15.242 20.0445 18.4464 19.8664C21.9179 19.6884 22.363 17.5521 22.363 12.0334C22.363 6.5146 21.9179 4.46731 18.4464 4.20028C15.242 3.93324 8.12099 3.93324 4.91654 4.20028C1.44506 4.46731 1 6.5146 1 12.0334ZM10.2993 14.9498C9.70745 15.2457 9.0111 14.8153 9.0111 14.1536V9.91314C9.0111 9.25144 9.70745 8.82107 10.2993 9.11699L14.5398 11.2372C15.1958 11.5653 15.1958 12.5015 14.5398 12.8295L10.2993 14.9498Z" fill="white"/>
</svg>
