<svg width="24" height="24" viewBox="0 0 24 24" fill="none" xmlns="http://www.w3.org/2000/svg">
<path d="M8.28982 20C15.8373 20 19.9648 13.4602 19.9648 7.78951C19.9648 7.60371 19.9612 7.41885 19.953 7.23471C20.7541 6.62901 21.4507 5.87294 22 5.01268C21.2648 5.35431 20.4737 5.58437 19.6436 5.68809C20.4907 5.15685 21.1413 4.31609 21.4482 3.31404C20.6552 3.80579 19.7771 4.16312 18.8427 4.35582C18.0936 3.52173 17.0272 3 15.8473 3C13.581 3 11.7433 4.92204 11.7433 7.2911C11.7433 7.62797 11.7795 7.95533 11.8495 8.2696C8.4395 8.09046 5.41549 6.38254 3.3919 3.78604C3.03909 4.42006 2.83596 5.15709 2.83596 5.94289C2.83596 7.4317 3.56046 8.74613 4.6621 9.51527C3.98901 9.49363 3.35664 9.29997 2.80366 8.97832C2.80275 8.99617 2.80275 9.01425 2.80275 9.03304C2.80275 11.1116 4.21739 12.8469 6.09472 13.2402C5.7501 13.3384 5.38751 13.3912 5.01309 13.3912C4.74877 13.3912 4.49173 13.3636 4.24173 13.3139C4.76401 15.0187 6.27897 16.2597 8.07509 16.2946C6.67045 17.4458 4.90117 18.1317 2.97881 18.1317C2.64784 18.1317 2.32119 18.112 2 18.0723C3.81591 19.2894 5.97211 20 8.28982 20Z" fill="white"/>
</svg>
