<svg width="228" height="40" viewBox="0 0 228 40" fill="none" xmlns="http://www.w3.org/2000/svg">
<path fill-rule="evenodd" clip-rule="evenodd" d="M9.32517 14.0228C9.32517 14.0228 10.7143 7.05522 18.1201 8.37424C19.4179 8.60539 20.6667 8.8893 21.8842 9.16608C27.6141 10.4687 32.6497 11.6135 38.83 6.35846C38.83 6.35846 37.2437 12.5592 29.1061 13.7555C25.6379 14.2653 22.9769 13.7612 20.4496 13.2823C17.0468 12.6376 13.8865 12.0388 9.32517 14.0228ZM0 0H40V40H0V31.4636C0.616235 31.575 1.23383 31.692 1.85596 31.81L1.85625 31.81L1.85627 31.81L1.85633 31.81C6.35266 32.6624 11.0857 33.5597 17.2524 32.6512C31.7134 30.5259 34.5224 19.5048 34.5224 19.5048C23.5419 28.8356 14.597 26.8025 4.4232 24.4902L4.42318 24.4902L4.42316 24.4902L4.42313 24.4902L4.42308 24.4902L4.42303 24.4902C2.97665 24.1614 1.50543 23.827 0 23.5189V20.9772C4.09051 20.1873 7.46592 20.8275 11.0253 21.5027C14.6727 22.1945 18.5133 22.923 23.5145 22.1867C35.2454 20.4338 37.5373 11.5206 37.5373 11.5206C28.6185 19.1157 21.3563 17.4573 13.0902 15.5697C11.3408 15.1702 9.54643 14.7604 7.68187 14.4259C4.34269 13.8344 1.85365 14.426 0.00877242 15.4733L0 0ZM55.4903 21.0871H57.0416C57.5772 21.0824 58.1118 21.1338 58.6367 21.2404C59.099 21.3326 59.5431 21.4999 59.9513 21.7356C60.3133 21.9484 60.6149 22.2501 60.8278 22.6121C61.0457 23.0028 61.1561 23.4443 61.1476 23.8916C61.1584 24.3629 61.0482 24.8291 60.8278 25.2457C60.6249 25.612 60.3343 25.9222 59.982 26.1484C59.6014 26.3858 59.1837 26.5576 58.7462 26.6567C58.2628 26.764 57.769 26.8169 57.2739 26.8145H56.2703C55.9899 26.8145 55.7357 26.7882 55.5166 26.7576L55.4903 21.0871ZM55.4903 13.1642C55.7297 13.1242 55.9711 13.0964 56.2134 13.0809C56.3506 13.0809 56.5057 13.0741 56.6791 13.0665L56.6792 13.0665L56.6792 13.0665C56.8989 13.0568 57.148 13.0459 57.4272 13.0459C58.2624 12.993 59.0935 13.1996 59.8067 13.6375C60.0808 13.8321 60.3013 14.0928 60.4476 14.3954C60.594 14.698 60.6614 15.0327 60.6437 15.3684C60.6555 15.8401 60.5107 16.3024 60.2318 16.6831C59.9149 17.0883 59.4871 17.3928 59.0004 17.5595C58.3498 17.7777 57.6663 17.8815 56.9802 17.8662H55.4903V13.1642ZM51.2309 29.9083C51.7217 29.9784 52.23 30.0222 52.9837 30.0748C53.7375 30.1274 54.7848 30.1668 55.8979 30.1712C57.07 30.1803 58.2413 30.1085 59.4036 29.9565C60.2862 29.8446 61.1543 29.639 61.9934 29.343C62.6444 29.1088 63.255 28.7747 63.8032 28.3526C64.2195 28.0205 64.5881 27.6327 64.8987 27.2002C65.2126 26.7645 65.4566 26.2825 65.6218 25.7716C65.8018 25.22 65.8906 24.6427 65.8847 24.0625C65.894 23.2733 65.7137 22.4933 65.3589 21.7882C65.023 21.1319 64.542 20.5609 63.9522 20.1186C63.3405 19.664 62.6473 19.3307 61.9101 19.137V19.0757C62.5915 18.8277 63.2213 18.4563 63.7681 17.9802C64.234 17.5757 64.6063 17.0748 64.8593 16.5122C65.094 15.9792 65.2149 15.403 65.2143 14.8207C65.2181 14.2441 65.114 13.6719 64.9075 13.1335C64.7136 12.6466 64.4297 12.2006 64.0705 11.8189C63.7147 11.4343 63.2952 11.1141 62.8304 10.8724C62.3316 10.5815 61.7988 10.3534 61.244 10.1931C60.615 10.0162 59.971 9.8974 59.3203 9.83819C58.606 9.76808 57.7953 9.73738 56.8751 9.73738C56.0994 9.73738 55.3457 9.7593 54.6051 9.79874C53.8645 9.83818 53.1722 9.89075 52.5455 9.9521C51.9189 10.0135 51.6165 10.0573 51.2309 10.1186C51.1682 10.1299 51.1115 10.1629 51.0706 10.2118C51.0298 10.2606 51.0074 10.3223 51.0074 10.386V29.6673C51.012 29.7298 51.038 29.7889 51.0812 29.8344C51.1243 29.8799 51.1818 29.9091 51.244 29.917L51.2309 29.9083ZM75.7622 25.0573C75.7711 24.9245 75.7711 24.7913 75.7622 24.6585L75.7841 23.081C75.0598 23.069 74.3364 23.1396 73.6281 23.2913C73.0726 23.3986 72.5537 23.6459 72.1206 24.01C71.9355 24.1843 71.7894 24.396 71.692 24.6308C71.5946 24.8657 71.548 25.1186 71.5553 25.3728C71.5458 25.7096 71.6275 26.0428 71.792 26.3369C71.9416 26.5886 72.1628 26.79 72.4274 26.9153C72.7155 27.0433 73.0279 27.1076 73.3432 27.1037C73.699 27.1036 74.0504 27.0258 74.373 26.8759C74.6838 26.7327 74.9636 26.5303 75.1968 26.2799C75.4211 26.0363 75.5914 25.7481 75.6964 25.4341C75.7279 25.3104 75.7499 25.1844 75.7622 25.0573ZM79.8332 18.9135C80.0489 19.7089 80.1536 20.5303 80.1443 21.3544L80.1487 26.499C80.1487 26.7344 80.1543 26.9631 80.1599 27.1884V27.1886V27.1888V27.189V27.1892V27.1894V27.1895V27.1896C80.1653 27.4085 80.1706 27.6242 80.1706 27.8399C80.1881 28.2781 80.2144 28.6813 80.2495 29.0494C80.276 29.3734 80.3228 29.6954 80.3897 30.0135H76.3055C76.235 30.0123 76.1677 29.9838 76.1178 29.9339C76.0679 29.884 76.0394 29.8167 76.0382 29.7462V28.5542H75.9506C75.4677 29.1303 74.8528 29.5812 74.1583 29.8689C73.4026 30.1734 72.5934 30.3224 71.7788 30.3071C71.1007 30.3124 70.428 30.1859 69.7981 29.9346C69.2436 29.7064 68.7412 29.3679 68.3213 28.9398C67.9213 28.5315 67.6069 28.0472 67.3967 27.5157C67.1847 26.983 67.0762 26.4149 67.0768 25.8417C67.0573 24.9784 67.2675 24.1255 67.6859 23.3702C68.1066 22.6499 68.7019 22.0471 69.4168 21.6173C70.2521 21.1284 71.1629 20.7819 72.1119 20.5919C73.2654 20.3574 74.4404 20.2443 75.6176 20.2545V20.0748C75.6192 19.8589 75.5852 19.6442 75.5168 19.4394C75.4415 19.2034 75.309 18.9896 75.1312 18.8172C74.9006 18.6016 74.623 18.4426 74.3204 18.3527C73.8819 18.2188 73.4247 18.1566 72.9664 18.1686C72.4644 18.1697 71.9638 18.2211 71.472 18.322C70.9989 18.4147 70.5343 18.5466 70.0829 18.7163C69.7909 18.8249 69.5068 18.9538 69.2328 19.102C69.1971 19.1204 69.1578 19.1305 69.1177 19.1316C69.0775 19.1326 69.0377 19.1247 69.001 19.1083C68.9644 19.0918 68.932 19.0674 68.9061 19.0367C68.8802 19.006 68.8616 18.97 68.8515 18.9311L68.1723 16.556C68.1547 16.4974 68.1577 16.4346 68.1808 16.3779C68.204 16.3213 68.2458 16.2743 68.2994 16.2449C68.6682 16.0549 69.0504 15.8923 69.4431 15.7584C70.064 15.5396 70.7015 15.3711 71.3494 15.2545C72.1488 15.1086 72.96 15.0367 73.7727 15.0398C74.8092 15.0136 75.8412 15.1846 76.8139 15.5437C77.5722 15.8264 78.2483 16.2933 78.7814 16.9022C79.2724 17.4893 79.6311 18.1753 79.8332 18.9135ZM82.813 29.9608H86.7963C86.8676 29.9609 86.9361 29.9328 86.9869 29.8828C87.0377 29.8328 87.0669 29.7648 87.068 29.6935V21.5647C87.0668 21.3598 87.077 21.155 87.0987 20.9512C87.1118 20.7724 87.1516 20.5966 87.217 20.4297C87.3296 20.1378 87.4879 19.8656 87.6859 19.6234C87.8956 19.3604 88.1564 19.1428 88.4527 18.9836C88.7898 18.8145 89.1625 18.7288 89.5396 18.7339C90.0102 18.7198 90.4723 18.8616 90.8542 19.137C91.2034 19.4224 91.4597 19.8053 91.5904 20.2369C91.7564 20.7714 91.8333 21.3295 91.8182 21.889V29.6935C91.8182 29.729 91.8253 29.7641 91.839 29.7968C91.8527 29.8296 91.8728 29.8592 91.898 29.8841C91.9233 29.909 91.9534 29.9286 91.9863 29.9418C92.0192 29.9549 92.0545 29.9614 92.0899 29.9608H96.0908C96.1265 29.9614 96.1619 29.955 96.1951 29.9419C96.2283 29.9287 96.2586 29.9092 96.2842 29.8844C96.3099 29.8596 96.3303 29.8299 96.3445 29.7972C96.3587 29.7644 96.3663 29.7292 96.3669 29.6935V21.3675C96.3807 20.4216 96.2447 19.4794 95.9637 18.5761C95.7459 17.8519 95.3737 17.1836 94.8726 16.6173C94.4193 16.1085 93.8536 15.7123 93.2205 15.4604C92.5619 15.2021 91.8595 15.0741 91.1521 15.0835C90.5946 15.081 90.0396 15.1593 89.5045 15.3158C88.6574 15.5724 87.8877 16.0363 87.2652 16.6655C87.0343 16.8993 86.83 17.1579 86.6561 17.4367H86.5641V15.6839C86.5653 15.6477 86.5591 15.6116 86.5459 15.5779C86.5327 15.5441 86.5128 15.5134 86.4874 15.4876C86.462 15.4618 86.4316 15.4414 86.3981 15.4277C86.3646 15.4139 86.3286 15.4072 86.2924 15.4078H82.4273L82.5106 16.6918C82.5521 17.2966 82.5499 17.7651 82.5472 18.3661V18.3673V18.3685V18.3698C82.5464 18.5297 82.5457 18.699 82.5457 18.8828V29.6848C82.5444 29.7208 82.5506 29.7567 82.5638 29.7902C82.5771 29.8237 82.597 29.8541 82.6225 29.8796C82.648 29.9051 82.6785 29.925 82.712 29.9383C82.7455 29.9515 82.7813 29.9577 82.8173 29.9565L82.813 29.9608ZM102.445 20.066C102.334 20.376 102.26 20.6982 102.226 21.0257H107.589C107.591 20.7145 107.555 20.4042 107.484 20.1011C107.408 19.7611 107.275 19.4366 107.09 19.1414C106.894 18.8289 106.627 18.5676 106.31 18.3789C105.914 18.1725 105.472 18.0685 105.026 18.0766C104.599 18.0734 104.178 18.1742 103.799 18.3702C103.47 18.5534 103.183 18.8043 102.958 19.1064C102.738 19.3981 102.566 19.7218 102.445 20.066ZM111.726 23.5126L111.726 23.5132L111.726 23.5141C111.71 23.6565 111.695 23.7846 111.678 23.896L111.691 23.8566C111.682 23.9197 111.65 23.9774 111.602 24.0191C111.554 24.0609 111.492 24.0841 111.428 24.0844H102.243C102.267 24.5212 102.405 24.9441 102.642 25.3115C102.874 25.6686 103.184 25.9683 103.549 26.1879C103.949 26.4217 104.382 26.5945 104.833 26.7006C105.332 26.8148 105.842 26.8707 106.354 26.8671C107.068 26.8725 107.782 26.8212 108.488 26.7137C109.029 26.6275 109.564 26.5015 110.087 26.3369C110.124 26.3242 110.163 26.3198 110.201 26.3239C110.24 26.328 110.277 26.3405 110.31 26.3606C110.343 26.3807 110.371 26.4078 110.392 26.4401C110.414 26.4723 110.428 26.5089 110.433 26.5472C110.6 27.3944 110.765 28.2431 110.929 29.0932C110.939 29.1555 110.928 29.2196 110.897 29.2746C110.866 29.3297 110.816 29.3724 110.758 29.3956C110.034 29.6783 109.282 29.8826 108.514 30.0047C107.584 30.1584 106.643 30.2347 105.701 30.2326C104.244 30.2683 102.799 29.9574 101.485 29.3255C100.369 28.7576 99.4518 27.8635 98.8559 26.7619C98.223 25.5455 97.9079 24.1888 97.9399 22.818C97.9407 22.0661 98.0334 21.317 98.216 20.5875C98.403 19.8505 98.6906 19.1427 99.0706 18.4841C99.4539 17.8237 99.944 17.2314 100.521 16.7313C101.127 16.199 101.827 15.7844 102.585 15.5086C103.457 15.205 104.375 15.0567 105.298 15.0704C106.142 15.0585 106.982 15.198 107.778 15.4823C108.457 15.7282 109.08 16.1049 109.614 16.591C110.12 17.0582 110.541 17.6098 110.858 18.2212C111.182 18.8452 111.419 19.51 111.564 20.1975C111.713 20.9005 111.788 21.6173 111.787 22.336C111.787 22.7304 111.77 23.0809 111.739 23.4008L111.726 23.5126ZM113.554 29.3386C114.149 29.6263 114.775 29.8453 115.42 29.9916C116.291 30.192 117.182 30.292 118.076 30.2896C119.275 30.3203 120.467 30.1086 121.582 29.6673C122.43 29.3325 123.159 28.7528 123.676 28.0021C124.08 27.3578 124.318 26.6233 124.368 25.8645C124.417 25.1057 124.278 24.3465 123.961 23.655C123.663 23.0664 123.227 22.5584 122.69 22.1739C122.004 21.6882 121.248 21.3113 120.447 21.0564C119.969 20.8964 119.501 20.7091 119.044 20.4955C118.767 20.3736 118.517 20.1978 118.308 19.9784C118.162 19.8065 118.085 19.5861 118.093 19.3605C118.088 19.1932 118.125 19.0273 118.202 18.8785C118.279 18.7297 118.392 18.603 118.532 18.5104C118.918 18.2825 119.363 18.1743 119.811 18.1993C120.219 18.2031 120.626 18.2471 121.025 18.3307C121.399 18.4116 121.767 18.52 122.125 18.655C122.327 18.7295 122.511 18.804 122.668 18.8785C122.705 18.8977 122.745 18.9082 122.787 18.9089C122.828 18.9097 122.868 18.9007 122.906 18.8828C122.943 18.8649 122.975 18.8385 123 18.8058C123.025 18.7731 123.042 18.7349 123.05 18.6945L123.716 16.0082C123.724 15.9774 123.721 15.9445 123.706 15.9161C123.692 15.8877 123.667 15.8658 123.637 15.8548C123.113 15.6128 122.565 15.4277 122.002 15.3027C121.235 15.1285 120.45 15.0403 119.662 15.0398C118.832 15.0313 118.005 15.154 117.213 15.4035C116.532 15.6168 115.898 15.959 115.346 16.4114C114.841 16.8214 114.436 17.3396 114.158 17.9276C113.871 18.5219 113.721 19.1735 113.72 19.8338C113.708 20.4176 113.843 20.995 114.115 21.5122C114.433 22.1054 114.882 22.618 115.429 23.0109C116.175 23.5361 116.999 23.9413 117.87 24.2116C118.313 24.3506 118.744 24.5265 119.158 24.7374C119.413 24.8533 119.635 25.0292 119.807 25.2501C119.932 25.4476 119.993 25.6785 119.982 25.9118C119.994 26.0837 119.959 26.2555 119.882 26.4095C119.805 26.5636 119.688 26.6943 119.544 26.7882C119.088 27.0309 118.574 27.1416 118.058 27.1081C117.581 27.0983 117.105 27.0425 116.639 26.9416C116.164 26.8393 115.696 26.7031 115.241 26.5341C114.969 26.4446 114.705 26.3317 114.452 26.1966C114.416 26.1799 114.378 26.1711 114.338 26.1708C114.299 26.1705 114.26 26.1788 114.224 26.195C114.188 26.2113 114.156 26.2351 114.131 26.2649C114.105 26.2947 114.086 26.3297 114.075 26.3675L113.405 29.0406C113.39 29.0985 113.395 29.1594 113.419 29.2141C113.443 29.2687 113.484 29.314 113.536 29.343L113.554 29.3386ZM130.539 20.066C130.425 20.3754 130.352 20.6978 130.32 21.0257H135.683C135.684 20.7144 135.649 20.4041 135.578 20.1011C135.5 19.7619 135.367 19.4377 135.184 19.1414C134.987 18.8278 134.718 18.5662 134.399 18.3789C133.844 18.0897 133.205 18.0042 132.594 18.137C131.982 18.2699 131.436 18.6129 131.051 19.1063C130.831 19.397 130.658 19.721 130.539 20.066ZM139.8 23.6235C139.785 23.7228 139.772 23.8139 139.772 23.896L139.737 23.8566C139.726 23.92 139.694 23.9778 139.645 24.0195C139.596 24.0612 139.534 24.0842 139.469 24.0844H130.315C130.337 24.5215 130.475 24.9449 130.714 25.3114C130.946 25.6686 131.256 25.9683 131.621 26.1879C132.021 26.4217 132.454 26.5945 132.905 26.7006C133.404 26.8148 133.914 26.8707 134.426 26.8671C135.14 26.8725 135.854 26.8212 136.56 26.7137C137.101 26.6269 137.636 26.501 138.159 26.3368C138.196 26.3242 138.235 26.3197 138.273 26.3238C138.312 26.3279 138.349 26.3405 138.382 26.3606C138.415 26.3807 138.443 26.4078 138.464 26.4401C138.486 26.4723 138.5 26.5089 138.505 26.5472C138.596 27.0074 138.685 27.4689 138.775 27.931C138.85 28.3181 138.925 28.7056 139.001 29.0932C139.011 29.1555 139 29.2196 138.969 29.2746C138.937 29.3297 138.888 29.3723 138.83 29.3955C138.104 29.6783 137.351 29.8825 136.582 30.0047C135.652 30.1588 134.711 30.235 133.768 30.2325C132.313 30.2676 130.869 29.9567 129.557 29.3254C128.441 28.7576 127.524 27.8635 126.928 26.7619C126.291 25.5466 125.975 24.1894 126.008 22.818C126.01 22.0659 126.104 21.3168 126.288 20.5875C126.482 19.8493 126.777 19.1415 127.164 18.4841C127.548 17.8237 128.038 17.2314 128.615 16.7312C129.22 16.198 129.92 15.7833 130.679 15.5086C131.549 15.2055 132.466 15.0571 133.387 15.0704C134.232 15.0571 135.072 15.1967 135.867 15.4823C136.548 15.7272 137.173 16.1039 137.708 16.591C138.213 17.0594 138.634 17.6107 138.952 18.2211C139.275 18.8451 139.513 19.5099 139.658 20.1975C139.807 20.9005 139.882 21.6173 139.881 22.3359C139.883 22.6916 139.866 23.0471 139.829 23.4008C139.822 23.4789 139.811 23.5532 139.8 23.6235Z" fill="white"/>
<path fill-rule="evenodd" clip-rule="evenodd" d="M161.693 0H160.316V39.4115H161.693V0ZM208.345 10.9782C206.068 10.9778 203.823 11.5155 201.793 12.5475C203.916 13.8862 205.679 15.7248 206.927 17.9024C207.395 17.8147 207.869 17.7687 208.345 17.7648C210.388 17.7684 212.346 18.582 213.79 20.0271C215.233 21.4722 216.045 23.4309 216.047 25.4736C216.051 26.6071 215.804 27.7275 215.324 28.7543C214.844 29.7811 214.142 30.6889 213.27 31.4126C212.398 32.1363 211.376 32.658 210.278 32.9402C209.18 33.2224 208.034 33.2581 206.92 33.0448C206.79 33.0215 206.662 32.9917 206.535 32.9553L206.156 32.8659C204.957 32.5082 203.863 31.8647 202.967 30.9907C202.072 30.1167 201.402 29.0383 201.015 27.8482C200.939 27.6073 200.877 27.3664 200.822 27.1255C200.704 26.5852 200.644 26.0337 200.643 25.4805C200.641 25.2229 200.625 24.9655 200.595 24.7096C200.161 22.9958 197.959 20.2013 194.744 20.5042C194.044 22.3982 193.748 24.4181 193.876 26.4334C194.004 28.4487 194.553 30.4149 195.488 32.2051L195.674 32.5424L195.866 32.8865C197.12 34.9982 198.886 36.7595 201.001 38.0074L201.386 38.2208L201.765 38.4204C203.802 39.4617 206.058 40.0021 208.345 39.9966C210.275 40.0386 212.193 39.6948 213.988 38.9855C215.783 38.2761 217.419 37.2153 218.798 35.8655C220.178 34.5156 221.274 32.9038 222.022 31.1246C222.771 29.3455 223.156 27.4347 223.156 25.5046C223.156 23.5745 222.771 21.6637 222.022 19.8846C221.274 18.1054 220.178 16.4936 218.798 15.1437C217.419 13.7939 215.783 12.7331 213.988 12.0237C212.193 11.3143 210.275 10.9706 208.345 11.0126V10.9782ZM193.726 33.1687C194.188 33.1628 194.648 33.1168 195.102 33.0311C195.578 35.3499 196.819 37.4417 198.626 38.971C197.038 39.5499 195.361 39.8458 193.671 39.8451C192.817 39.8451 191.138 39.6868 191.138 39.6868C190.316 39.5115 189.506 39.2816 188.715 38.9985C183.991 37.2596 180.105 33.79 177.845 29.2928C175.584 24.7956 175.117 19.6071 176.54 14.7786C177.962 9.95021 181.166 5.84301 185.504 3.28929C189.841 0.735575 194.988 -0.0736713 199.9 1.02555L198.406 7.65379C195.491 7.00391 192.442 7.37127 189.765 8.69482C187.087 10.0184 184.944 12.2184 183.69 14.929C185.858 12.8468 188.62 11.4919 191.593 11.0527C194.566 10.6135 197.602 11.112 200.278 12.4787L200.664 12.6783L201.042 12.8986C203.158 14.1458 204.924 15.9072 206.177 18.0194C206.211 18.0745 206.242 18.1312 206.273 18.1879L206.273 18.188L206.273 18.188L206.273 18.188L206.273 18.1881C206.304 18.2449 206.335 18.3016 206.37 18.3567C206.419 18.4355 206.461 18.5178 206.504 18.6012L206.504 18.6013C206.521 18.6344 206.538 18.6676 206.555 18.7008C207.637 20.7686 208.202 23.0677 208.202 25.4014C208.202 27.7351 207.637 30.0341 206.555 32.1019C205.081 31.7074 203.779 30.837 202.85 29.6259C201.921 28.4148 201.419 26.9309 201.421 25.4048C201.419 24.8514 201.356 24.2998 201.235 23.7598L201.233 23.7515C201.178 23.5402 201.117 23.3025 201.042 23.0715C200.653 21.8891 199.984 20.8181 199.093 19.9494C198.201 19.0806 197.113 18.4398 195.921 18.0814L195.536 17.985L195.15 17.8956C194.681 17.8075 194.204 17.7614 193.726 17.7579C191.722 17.8178 189.82 18.6559 188.424 20.0944C187.028 21.5329 186.247 23.4587 186.247 25.4633C186.247 27.4679 187.028 29.3937 188.424 30.8322C189.82 32.2707 191.722 33.1088 193.726 33.1687ZM224.189 35.8875L223.26 37.03L223.611 37.677L223.136 38.2621L221.567 35.1648L222.021 34.6004L225.38 35.502L224.892 36.1008L224.189 35.8875ZM223.611 35.7154L222.352 35.3368L222.978 36.4932L223.611 35.7154ZM226.97 32.0124L224.066 30.7597L223.756 31.4205L225.545 32.1501L223.157 32.8383L222.916 33.3959L225.821 34.7036L226.11 34.0153L224.348 33.2513L226.736 32.563L226.97 32.0124ZM225.738 30.6977C225.39 30.6788 225.055 30.5555 224.777 30.3439C224.499 30.1323 224.292 29.8421 224.181 29.511C224.07 29.18 224.062 28.8233 224.156 28.4872C224.251 28.1512 224.444 27.8513 224.711 27.6266C224.979 27.4018 225.307 27.2625 225.654 27.2267C226.002 27.191 226.352 27.2604 226.659 27.426C226.966 27.5917 227.217 27.8458 227.378 28.1555C227.539 28.4652 227.603 28.8162 227.562 29.1629C227.55 29.3858 227.492 29.6037 227.392 29.8034C227.292 30.003 227.152 30.1802 226.981 30.3239C226.811 30.4676 226.612 30.5749 226.398 30.6392C226.185 30.7035 225.96 30.7234 225.738 30.6977ZM226.048 27.9928C225.854 27.9751 225.659 28.0151 225.487 28.1078C225.315 28.2005 225.175 28.3417 225.083 28.5138C224.992 28.6858 224.953 28.8811 224.972 29.0752C224.99 29.2693 225.066 29.4535 225.189 29.6048C225.312 29.7562 225.477 29.8679 225.663 29.926C225.849 29.9841 226.048 29.986 226.235 29.9314C226.422 29.8769 226.589 29.7684 226.715 29.6194C226.841 29.4705 226.92 29.2877 226.943 29.094C226.962 28.9621 226.954 28.8275 226.918 28.6989C226.883 28.5703 226.821 28.4505 226.737 28.347C226.653 28.2434 226.548 28.1585 226.43 28.0975C226.311 28.0366 226.181 28.0009 226.048 27.9928ZM226.75 26.4579L227.335 26.6231C227.525 26.2078 227.587 25.7454 227.514 25.2947C227.383 24.3999 226.874 24.0282 226.351 24.1039C225.673 24.2007 225.62 24.8478 225.575 25.3838C225.543 25.7629 225.516 26.0864 225.277 26.1206C225.084 26.1482 224.898 26.0036 224.836 25.5769C224.795 25.2684 224.838 24.9544 224.96 24.6683L224.375 24.5238C224.232 24.8817 224.189 25.2721 224.251 25.6526C224.382 26.5474 224.885 26.9122 225.421 26.8365C226.1 26.736 226.156 26.0942 226.202 25.5606C226.234 25.1798 226.262 24.8542 226.509 24.8198C226.695 24.7922 226.867 24.9437 226.929 25.3773C226.98 25.7473 226.918 26.1243 226.75 26.4579Z" fill="white"/>
</svg>
